<svg width="28" height="28" viewBox="0 0 28 28" fill="none" xmlns="http://www.w3.org/2000/svg">
<circle cx="14" cy="14" r="12.95" fill="#C89B3C" stroke="#C89B3C" stroke-width="2.1"/>
<path d="M9.40556 17.1064C9.88556 18.3384 11.2616 19.1384 13.1336 19.1384C15.5656 19.1384 17.1976 17.7624 17.1976 15.7464C17.1976 14.2264 16.1736 13.0424 13.9816 12.6744L17.3896 8.24244H10.3336L9.94956 10.7224C10.1576 10.4024 10.6376 9.90644 11.8856 9.90644H14.3336L11.4216 13.8904C12.4776 13.9384 13.4216 14.0984 14.1096 14.4824C14.6696 14.8024 15.0216 15.3304 15.0216 15.9704C15.0216 16.8824 14.4136 17.6024 13.3576 17.6024C12.1576 17.6024 11.5496 16.8824 11.2136 15.8104L9.40556 17.1064Z" fill="#010A13"/>
</svg>
