<svg width="28" height="28" viewBox="0 0 28 28" fill="none" xmlns="http://www.w3.org/2000/svg">
<circle cx="14" cy="14" r="12.95" fill="#C89B3C" stroke="#C89B3C" stroke-width="2.1"/>
<path d="M9.42156 18.8984H17.2616L17.6296 16.4184C17.3896 16.8024 16.8456 17.2344 15.7576 17.2344H13.1176L13.7096 16.5784C15.6776 14.3544 17.1496 12.7224 17.1496 11.0904C17.1496 8.99444 15.4376 8.00244 13.6616 8.00244C10.9256 8.00244 9.66156 9.65044 9.66156 11.1864C9.66156 12.2424 10.3336 13.0744 11.1656 13.2984L12.5896 11.7464C11.9656 11.6184 11.6456 11.1864 11.6456 10.7064C11.6456 10.1144 12.1896 9.52244 13.1496 9.52244C14.0456 9.52244 14.8936 10.1144 14.8936 11.3464C14.8936 12.6424 13.9496 13.8904 12.0616 15.9864L9.42156 18.8984Z" fill="#010A13"/>
</svg>
